<svg width="1200" height="1400" viewBox="0 0 1200 1400" fill="none" xmlns="http://www.w3.org/2000/svg">
  <rect width="1200" height="1400" fill="#111111"/>
  <rect x="70" y="70" width="1060" height="1260" rx="48" fill="url(#bg)" stroke="rgba(255,255,255,0.12)"/>
  <circle cx="970" cy="280" r="190" fill="#8B4B22" fill-opacity="0.36"/>
  <circle cx="250" cy="1090" r="250" fill="#5C3218" fill-opacity="0.35"/>
  <path d="M360 975C430 825 528 709 639 617C751 524 876 500 911 571C939 629 899 716 822 764C744 812 653 872 579 1012C536 1094 431 1114 380 1065C355 1041 347 1002 360 975Z" fill="#B66A2B"/>
  <path d="M405 912C519 806 623 711 754 619" stroke="#F8D0A4" stroke-opacity="0.34" stroke-width="16" stroke-linecap="round"/>
  <path d="M452 1018C578 881 686 784 808 692" stroke="#FFF4E0" stroke-opacity="0.22" stroke-width="10" stroke-linecap="round"/>
  <text x="120" y="170" fill="#F5F5F5" font-family="Arial, sans-serif" font-size="34" letter-spacing="8">VELMIOR</text>
  <text x="120" y="1220" fill="#F5F5F5" font-family="Georgia, serif" font-size="84">Rou Gui</text>
  <text x="120" y="1288" fill="#D4D4D4" font-family="Arial, sans-serif" font-size="30" letter-spacing="3">Rock oolong · cinnamon profile</text>
  <defs>
    <linearGradient id="bg" x1="600" y1="70" x2="600" y2="1330" gradientUnits="userSpaceOnUse">
      <stop stop-color="#1D1713"/>
      <stop offset="1" stop-color="#111214"/>
    </linearGradient>
  </defs>
</svg>
