<svg width="1200" height="900" viewBox="0 0 1200 900" xmlns="http://www.w3.org/2000/svg">
    <defs>
      <linearGradient id="bg" x1="0" y1="0" x2="1" y2="1">
        <stop offset="0%" stop-color="#120d0c"/>
        <stop offset="52%" stop-color="#241512"/>
        <stop offset="100%" stop-color="#4d251c"/>
      </linearGradient>
      <radialGradient id="glow" cx="0.3" cy="0.25" r="0.8">
        <stop offset="0%" stop-color="rgba(255,255,255,0.32)"/>
        <stop offset="100%" stop-color="rgba(255,255,255,0)"/>
      </radialGradient>
      <linearGradient id="gold" x1="0" y1="0" x2="1" y2="1">
        <stop offset="0%" stop-color="#d2a66f"/>
        <stop offset="100%" stop-color="rgba(255,255,255,0.25)"/>
      </linearGradient>
      <filter id="blur"><feGaussianBlur stdDeviation="50"/></filter>
    </defs>
    <rect width="1200" height="900" fill="url(#bg)"/>
    <circle cx="220" cy="140" r="170" fill="#d2a66f" opacity="0.12" filter="url(#blur)"/>
    <circle cx="980" cy="770" r="190" fill="#d2a66f" opacity="0.09" filter="url(#blur)"/>
    <rect x="50" y="50" width="1100" height="800" rx="34" fill="rgba(0,0,0,0.14)" stroke="rgba(255,255,255,0.10)"/>
    
        <g opacity="0.9">
          <path d="M190 410 C240 300, 320 250, 430 220 C410 320, 350 410, 250 470" fill="url(#gold)" opacity="0.88"/>
          <path d="M470 380 C530 280, 630 230, 760 210 C725 325, 645 430, 540 485" fill="url(#gold)" opacity="0.7"/>
          <path d="M560 160 C615 120, 675 120, 740 150 C705 205, 635 225, 565 214" fill="url(#glow)" opacity="0.5"/>
        </g>
        
    <text x="100" y="124" fill="rgba(255,255,255,0.62)" font-size="18" font-family="Arial,sans-serif" letter-spacing="4">VELMIOR TEA ATELIER</text>
    <text x="100" y="720" fill="white" font-size="56" font-family="Georgia,serif">Wild Lapsang Souchong</text>
    <text x="100" y="770" fill="rgba(255,255,255,0.72)" font-size="24" font-family="Arial,sans-serif">Mountain leaf • deep smoke • resinous finish</text>
    </svg>