<svg width="1200" height="900" viewBox="0 0 1200 900" xmlns="http://www.w3.org/2000/svg">
    <defs>
      <linearGradient id="bg" x1="0" y1="0" x2="1" y2="1">
        <stop offset="0%" stop-color="#0d0f11"/>
        <stop offset="52%" stop-color="#181a1d"/>
        <stop offset="100%" stop-color="#2b2e35"/>
      </linearGradient>
      <radialGradient id="glow" cx="0.3" cy="0.25" r="0.8">
        <stop offset="0%" stop-color="rgba(255,255,255,0.32)"/>
        <stop offset="100%" stop-color="rgba(255,255,255,0)"/>
      </radialGradient>
      <linearGradient id="gold" x1="0" y1="0" x2="1" y2="1">
        <stop offset="0%" stop-color="#d8c59d"/>
        <stop offset="100%" stop-color="rgba(255,255,255,0.25)"/>
      </linearGradient>
      <filter id="blur"><feGaussianBlur stdDeviation="50"/></filter>
    </defs>
    <rect width="1200" height="900" fill="url(#bg)"/>
    <circle cx="220" cy="140" r="170" fill="#d8c59d" opacity="0.12" filter="url(#blur)"/>
    <circle cx="980" cy="770" r="190" fill="#d8c59d" opacity="0.09" filter="url(#blur)"/>
    <rect x="50" y="50" width="1100" height="800" rx="34" fill="rgba(0,0,0,0.14)" stroke="rgba(255,255,255,0.10)"/>
    
        <ellipse cx="500" cy="420" rx="145" ry="66" fill="#161616" stroke="rgba(255,255,255,0.12)" stroke-width="2"/>
        <path d="M402 350 C428 300, 452 280, 500 280 C548 280, 572 300, 598 350" fill="none" stroke="#d8c59d" stroke-width="5" stroke-linecap="round" opacity="0.75"/>
        <path d="M450 255 C430 215, 450 185, 430 145" fill="none" stroke="rgba(255,255,255,0.55)" stroke-width="4" stroke-linecap="round"/>
        <path d="M505 245 C485 205, 505 175, 488 135" fill="none" stroke="rgba(255,255,255,0.4)" stroke-width="4" stroke-linecap="round"/>
        <path d="M560 255 C540 215, 562 183, 545 143" fill="none" stroke="rgba(255,255,255,0.34)" stroke-width="4" stroke-linecap="round"/>
        
    <text x="100" y="124" fill="rgba(255,255,255,0.62)" font-size="18" font-family="Arial,sans-serif" letter-spacing="4">VELMIOR TEA ATELIER</text>
    <text x="100" y="720" fill="white" font-size="56" font-family="Georgia,serif">Zhengyan Rou Gui</text>
    <text x="100" y="770" fill="rgba(255,255,255,0.72)" font-size="24" font-family="Arial,sans-serif">Layered, persistent and ceremonial</text>
    </svg>