<svg width="1600" height="900" viewBox="0 0 1600 900" fill="none" xmlns="http://www.w3.org/2000/svg">
<rect width="1600" height="900" fill="#111827"/>
<rect width="1600" height="900" fill="url(#g)" fill-opacity="0.7"/>
<path d="M0 680C240 560 350 620 550 560C770 490 900 340 1130 330C1320 322 1460 390 1600 440V900H0V680Z" fill="#1F3A2B"/>
<path d="M0 740C220 660 350 690 540 640C760 582 880 430 1130 420C1340 412 1470 470 1600 520V900H0V740Z" fill="#294936"/>
<circle cx="1290" cy="160" r="90" fill="#F4E8C1" fill-opacity="0.18"/>
<path d="M270 710C270 610 350 530 450 530H620V900H270V710Z" fill="#0B1220" fill-opacity="0.4"/>
<path d="M950 560C1005 470 1130 450 1210 510C1290 570 1310 695 1250 780" stroke="#D1FAE5" stroke-width="12" stroke-linecap="round"/>
<path d="M1010 615C1060 555 1145 545 1200 585" stroke="#A7F3D0" stroke-width="8" stroke-linecap="round"/>
<defs><linearGradient id="g" x1="800" y1="0" x2="800" y2="900"><stop stop-color="#374151"/><stop offset="1" stop-color="#111827"/></linearGradient></defs>
</svg>
