<?xml version="1.0" standalone="no"?>
<!DOCTYPE svg PUBLIC "-//W3C//DTD SVG 20010904//EN"
 "http://www.w3.org/TR/2001/REC-SVG-20010904/DTD/svg10.dtd">
<svg version="1.0" xmlns="http://www.w3.org/2000/svg"
 width="1920.000000pt" height="1280.000000pt" viewBox="0 0 1920.000000 1280.000000"
 preserveAspectRatio="xMidYMid meet">

<g transform="translate(0.000000,1280.000000) scale(0.100000,-0.100000)"
fill="#000000" stroke="none">
<path d="M0 10175 l0 -2624 24 24 c13 13 36 27 50 31 14 3 26 10 26 16 0 5 -4
7 -9 3 -5 -3 -12 -1 -16 5 -3 5 0 10 9 10 8 0 23 3 33 7 16 6 16 5 5 -10 -13
-15 -7 -16 64 -19 47 -2 79 -8 81 -14 6 -17 -111 -54 -194 -61 l-73 -6 0 -616
c1 -490 3 -620 14 -633 13 -18 10 -74 -5 -84 -5 -3 -9 -1318 -9 -3105 l0
-3099 9600 0 9600 0 0 2539 0 2539 -39 -5 c-24 -3 -41 -1 -46 6 -10 17 22 49
56 56 23 5 29 12 29 32 0 26 0 26 -61 19 -34 -3 -79 -6 -100 -6 -47 0 -50 -12
-7 -33 35 -17 33 -19 -37 -36 -80 -19 -171 -23 -183 -8 -9 10 -8 19 4 35 18
26 71 30 80 7 4 -8 14 -15 23 -15 19 0 61 27 61 39 0 9 -107 23 -200 26 -66 3
-254 22 -330 35 -197 33 -301 45 -515 60 -134 10 -294 25 -625 61 -195 21
-714 113 -736 130 -15 12 -5 59 12 59 7 0 23 -4 36 -9 70 -27 386 -81 768
-130 41 -6 123 -17 181 -26 59 -8 131 -15 160 -15 53 0 188 -18 299 -39 115
-22 401 -39 978 -57 l192 -6 0 239 c0 177 -3 242 -12 252 -10 11 -10 14 0 18
9 4 12 717 12 3519 l0 3514 -9600 0 -9600 0 0 -2625z m5341 -291 c74 -38 59
-103 -24 -104 -20 0 -107 77 -107 95 0 33 74 38 131 9z m520 -550 c65 -33 96
-106 67 -155 -11 -18 -10 -23 15 -40 33 -25 29 -33 -26 -58 -66 -29 -139 -41
-255 -41 -134 1 -205 21 -210 60 -3 30 -31 47 -135 84 -80 28 -137 65 -137 88
0 22 45 36 200 64 109 20 146 22 290 17 109 -3 174 -10 191 -19z m8196 -139
c172 -22 295 -54 503 -132 243 -90 530 -281 712 -471 185 -194 318 -392 407
-606 120 -288 180 -615 167 -912 -7 -170 -38 -415 -66 -519 -45 -172 -55 -203
-128 -400 -57 -157 -177 -374 -281 -509 -121 -156 -270 -306 -386 -386 -79
-54 -177 -117 -223 -142 -30 -16 -64 -35 -75 -43 -55 -35 -341 -138 -408 -146
-28 -4 -40 10 -19 22 8 4 62 22 120 39 58 18 128 41 155 52 79 32 243 118 320
168 38 25 77 50 86 55 99 61 326 287 440 440 119 159 283 491 335 680 129 469
143 873 44 1262 -116 451 -376 836 -761 1125 -136 102 -267 178 -397 229 -42
17 -99 40 -126 50 -84 34 -246 77 -376 101 -162 29 -471 32 -655 5 -314 -44
-592 -150 -860 -325 -103 -68 -298 -229 -357 -295 -15 -17 -31 -28 -35 -24 -9
9 116 137 131 134 6 -1 10 4 9 11 -2 6 1 12 7 12 5 0 18 10 30 22 11 12 20 18
20 14 0 -4 11 4 24 18 13 15 28 26 33 26 5 0 15 10 22 23 6 12 23 29 36 37 13
8 61 40 107 71 238 159 528 264 873 317 100 16 441 14 572 -3z m-10387 -95
c37 -19 77 -57 68 -65 -8 -8 -104 20 -132 39 -14 9 -26 25 -26 36 0 17 4 19
28 14 15 -4 43 -15 62 -24z m2175 -190 c-28 -12 -45 -12 -45 0 0 6 15 10 33 9
27 0 29 -2 12 -9z m38 -101 c-6 -20 -15 -24 -27 -11 -4 4 -12 8 -17 8 -5 1
-12 2 -16 3 -4 0 2 7 12 15 25 18 54 10 48 -15z m7787 -31 c0 -5 -6 -8 -14 -8
-8 0 -22 -7 -30 -16 -19 -18 -15 -40 24 -139 16 -38 45 -113 65 -165 19 -52
50 -124 67 -160 26 -55 32 -62 39 -45 107 269 171 453 167 480 -2 13 -15 24
-38 31 -19 6 -35 15 -37 20 -3 9 215 10 224 1 3 -3 -13 -10 -34 -16 -58 -16
-80 -46 -128 -178 -24 -65 -58 -154 -75 -198 -17 -44 -40 -102 -50 -130 -10
-27 -30 -81 -44 -119 -26 -69 -33 -83 -39 -75 -5 8 -116 294 -160 414 -98 267
-115 295 -177 295 -11 0 -20 5 -20 10 0 7 46 10 130 8 71 -2 130 -6 130 -10z
m-2677 -345 c-7 -2 -21 -2 -30 0 -10 3 -4 5 12 5 17 0 24 -2 18 -5z m1532
-733 c-3 -6 12 -49 34 -96 23 -47 41 -90 41 -94 0 -5 7 -16 16 -25 14 -13 14
-20 4 -46 l-13 -30 -43 102 c-44 102 -51 125 -35 115 4 -3 1 10 -7 29 -9 19
-19 32 -23 30 -4 -3 -12 2 -19 10 -11 13 -8 15 19 15 19 0 30 -4 26 -10z m208
-8 c-11 -10 -20 -13 -22 -7 -2 5 -9 13 -15 17 -6 4 4 8 22 8 31 0 31 -1 15
-18z m219 -47 c-2 -42 1 -71 8 -80 10 -12 10 -15 0 -15 -9 0 -11 -18 -8 -70
l5 -70 -41 0 c-33 1 -37 3 -23 11 15 9 17 27 17 144 0 97 -3 135 -12 138 -7 3
3 6 22 6 l35 1 -3 -65z m150 33 l5 -32 -19 24 c-12 15 -35 26 -61 31 -42 6
-41 7 14 8 56 1 57 1 61 -31z m220 -73 c-3 -58 -1 -125 2 -150 l7 -45 58 0
c44 0 65 5 85 21 19 15 26 17 26 7 0 -32 -23 -38 -144 -37 -67 1 -111 4 -98 6
22 4 22 7 22 143 0 122 -2 140 -17 149 -14 8 -10 10 22 11 l41 0 -4 -105z
m420 -20 l56 -115 24 43 c13 23 39 75 58 114 35 72 35 73 75 72 32 0 36 -2 23
-10 -16 -9 -18 -27 -18 -139 0 -112 2 -130 18 -139 13 -8 4 -10 -38 -11 -34 0
-50 4 -42 9 16 9 28 216 13 225 -4 3 -34 -49 -66 -116 l-57 -122 -45 90 c-25
49 -48 100 -52 113 -4 14 -13 27 -21 29 -11 4 -12 -15 -6 -104 4 -66 12 -111
19 -116 7 -4 -8 -8 -32 -8 -41 0 -43 1 -25 14 17 13 19 29 22 136 3 84 0 125
-8 135 -10 13 -8 15 17 15 27 0 33 -7 85 -115z m491 105 c-22 -9 -23 -14 -23
-141 0 -114 2 -134 18 -145 15 -12 10 -13 -40 -11 -51 2 -55 4 -42 18 10 12
14 47 14 142 0 109 -2 127 -17 136 -14 8 -2 10 47 10 49 0 59 -3 43 -9z m385
-10 c63 -39 90 -142 53 -210 -28 -53 -74 -80 -138 -80 -110 0 -168 52 -168
152 0 63 19 97 75 136 44 30 131 31 178 2z m396 -4 c48 -31 46 -94 -5 -125
l-29 -18 45 -61 c24 -33 52 -65 62 -71 15 -9 11 -11 -21 -9 -35 3 -44 9 -89
68 -33 43 -57 65 -71 65 -18 0 -20 -5 -17 -55 1 -37 8 -59 19 -67 13 -11 7
-13 -38 -13 -42 0 -51 3 -42 12 8 8 12 55 12 145 0 129 -1 134 -22 143 -17 8
5 9 74 7 68 -3 105 -9 122 -21z m-5873 -61 c266 -37 467 -114 694 -266 210
-141 397 -354 512 -584 85 -168 156 -426 167 -600 5 -77 4 -75 -13 35 -23 148
-41 223 -84 340 -143 394 -427 714 -804 904 -205 103 -478 166 -718 166 -281
0 -580 -81 -811 -220 -211 -127 -370 -273 -487 -450 -39 -58 -51 -59 -16 0 45
73 152 201 231 275 94 88 257 199 376 256 155 74 374 136 532 152 95 10 327 5
421 -8z m3525 -66 c-14 -30 -25 -50 -25 -46 -1 12 41 108 45 104 3 -2 -7 -28
-20 -58z m402 21 c-1 -17 -6 -26 -11 -21 -5 5 -6 18 -2 30 9 30 16 26 13 -9z
m48 -145 c-3 -8 -14 -15 -25 -15 -20 0 -20 1 2 23 22 22 34 19 23 -8z m-10546
-4 c0 -5 3 -16 6 -24 4 -10 -5 -18 -28 -26 -61 -19 -269 -61 -356 -71 -48 -5
-125 -14 -171 -20 -46 -5 -93 -12 -105 -16 -21 -7 -21 -7 -1 -15 11 -4 46 -8
78 -8 42 -1 59 -5 64 -16 3 -9 4 -18 2 -20 -5 -4 -308 -19 -402 -20 -50 0 -70
4 -77 15 -26 41 2 55 138 69 66 6 136 16 154 22 18 5 119 25 223 44 105 20
235 46 290 60 55 13 109 26 120 28 36 8 65 7 65 -2z m-2392 -83 c16 -16 15
-28 0 -28 -22 0 -41 17 -34 29 9 14 19 14 34 -1z m8651 -67 c-26 -21 -25 -25
51 -216 80 -200 81 -203 91 -180 25 61 109 286 120 323 10 34 10 48 1 63 -11
17 -9 19 20 20 18 0 49 2 68 4 l35 4 -30 -13 c-55 -24 -57 -30 -210 -443 -21
-57 -41 -103 -44 -103 -6 0 -42 91 -136 350 -59 162 -80 196 -124 203 -14 2
20 4 76 4 99 1 102 1 82 -16z m-8360 -14 c16 -20 3 -27 -48 -27 -37 1 -42 3
-28 11 9 6 15 14 12 20 -10 14 51 11 64 -4z m431 -12 c0 -12 -21 -25 -41 -25
-14 0 -11 38 4 43 18 6 37 -3 37 -18z m-555 -79 l70 -23 -35 -8 c-53 -12 -181
-9 -214 4 -28 11 -28 12 -11 31 25 28 101 26 190 -4z m601 -64 c15 -9 44 -67
44 -86 0 -37 -82 -49 -100 -15 -9 16 -7 29 10 65 22 45 27 49 46 36z m12336
-45 c0 -26 -1 -65 -1 -87 -1 -22 -5 -40 -11 -40 -6 0 -10 37 -10 91 0 64 3 90
11 87 7 -2 12 -24 11 -51z m550 6 c5 -75 -3 -143 -15 -143 -9 0 -11 28 -9 95
4 99 19 130 24 48z m-468 14 c8 -12 7 -23 -2 -38 -11 -18 -11 -24 2 -38 14
-16 23 -61 12 -61 -2 0 -12 -3 -21 -7 -14 -5 -16 -3 -7 13 11 21 -1 64 -18 64
-6 0 -3 11 5 24 13 20 14 29 5 46 -9 18 -9 21 1 18 7 -2 17 -12 23 -21z m739
8 c-30 -21 -40 -93 -19 -136 21 -42 14 -48 -14 -12 -18 23 -21 37 -17 77 4 49
31 86 60 86 6 0 2 -7 -10 -15z m67 -14 c21 -41 7 -151 -20 -151 -5 0 -5 14 1
32 13 48 11 91 -7 116 -13 20 -13 22 0 22 8 0 20 -9 26 -19z m122 -71 l3 -90
-30 0 c-17 0 -25 4 -18 8 6 4 14 42 16 87 6 92 4 85 16 85 5 0 11 -41 13 -90z
m4442 43 c29 -31 31 -41 15 -76 -15 -33 -48 -49 -106 -52 -42 -2 -52 2 -80 31
-38 37 -42 68 -13 99 17 18 33 23 90 24 63 2 71 0 94 -26z m-5142 -48 c-3 -29
0 -50 9 -61 12 -14 11 -16 -6 -13 -15 3 -21 14 -23 43 -4 46 5 89 17 82 5 -3
6 -26 3 -51z m-88 23 c12 -38 13 -99 3 -95 -13 4 -27 107 -14 107 4 0 9 -6 11
-12z m392 4 c6 -4 13 -28 16 -54 4 -37 2 -48 -8 -48 -10 0 -14 13 -14 45 0 31
-5 47 -17 54 -14 8 -15 10 -3 11 8 0 20 -4 26 -8z m-13560 -27 c3 -14 10 -25
14 -25 5 0 7 -8 6 -17 -5 -35 -96 -23 -96 12 0 17 39 55 57 55 7 0 15 -11 19
-25z m12442 18 c-10 -2 -26 -2 -35 0 -10 3 -2 5 17 5 19 0 27 -2 18 -5z m672
3 c0 -3 -4 -8 -10 -11 -5 -3 -10 -1 -10 4 0 6 5 11 10 11 6 0 10 -2 10 -4z
m240 -16 c-15 -27 -4 -59 23 -70 l22 -9 -22 0 c-26 -1 -53 24 -53 49 0 10 7
26 16 34 21 22 27 20 14 -4z m-612 3 c-21 -2 -57 -2 -80 0 -24 2 -7 4 37 4 44
0 63 -2 43 -4z m1875 -10 c-89 -2 -237 -2 -330 0 -92 1 -19 3 162 3 182 0 257
-2 168 -3z m-1509 -35 c-4 -6 1 -17 11 -25 18 -12 18 -13 -2 -13 -12 0 -25 5
-28 10 -9 14 1 40 15 40 6 0 8 -5 4 -12z m-12849 -104 c272 -31 264 -29 135
-37 -231 -14 -319 -7 -365 28 -17 13 -18 16 -5 25 8 6 33 8 55 5 22 -3 103
-12 180 -21z m12241 -211 c-16 -51 -33 -142 -28 -147 3 -3 -4 -6 -15 -6 -21 0
-21 0 -2 37 10 20 22 59 25 85 4 26 11 48 16 48 5 0 7 -8 4 -17z m171 -5 c-3
-8 -6 -5 -6 6 -1 11 2 17 5 13 3 -3 4 -12 1 -19z m758 5 c-18 -45 -44 -147
-39 -154 3 -5 1 -9 -5 -9 -19 0 -19 17 0 75 10 32 19 69 19 82 0 14 6 23 16
23 11 0 14 -5 9 -17z m515 4 c0 -7 -9 -43 -19 -81 -11 -38 -17 -75 -14 -83 3
-7 -2 -13 -11 -13 -20 0 -20 13 0 70 8 24 17 60 19 80 2 19 4 36 4 38 3 9 21
0 21 -11z m-320 -6 c0 -9 -14 -56 -37 -118 -23 -66 -33 -51 -12 18 10 33 19
72 19 85 0 15 6 24 15 24 8 0 15 -4 15 -9z m74 -6 c18 -19 7 -58 -18 -63 -14
-3 -15 0 -5 22 9 20 9 29 -1 41 -17 20 4 20 24 0z m-1038 -72 c-10 -10 -19 5
-10 18 6 11 8 11 12 0 2 -7 1 -15 -2 -18z m168 11 c7 -19 -14 -84 -27 -84 -4
0 -5 10 0 23 4 12 7 34 7 50 -1 30 10 36 20 11z m71 -48 c-10 -20 -22 -36 -27
-36 -6 0 -3 12 7 26 9 15 15 37 12 51 -4 22 -3 23 10 10 13 -13 13 -19 -2 -51z
m189 37 c-7 -16 -14 -40 -14 -55 0 -16 -5 -28 -11 -28 -7 0 -9 10 -5 26 4 15
10 39 13 55 3 16 11 29 19 29 10 0 10 -5 -2 -27z m-329 -16 c-9 -12 -18 -30
-22 -39 -3 -10 -9 -18 -14 -18 -4 0 2 20 14 44 12 25 25 42 30 39 4 -3 1 -15
-8 -26z m244 26 c0 -5 -9 -26 -20 -48 -11 -22 -17 -31 -14 -20 4 11 9 32 12
48 3 15 9 27 14 27 5 0 9 -3 8 -7z m245 -8 c-4 -8 -10 -15 -15 -15 -4 0 -6 7
-3 15 4 8 10 15 15 15 4 0 6 -7 3 -15z m606 -5 c0 -5 -9 -14 -20 -20 -19 -10
-20 -10 -8 9 13 22 28 28 28 11z m221 -13 c-13 -13 -26 -3 -16 12 3 6 11 8 17
5 6 -4 6 -10 -1 -17z m144 1 c-4 -13 -8 -35 -8 -50 0 -17 -5 -28 -14 -28 -21
0 -27 29 -9 49 9 10 16 25 16 34 0 9 5 17 11 17 7 0 9 -8 4 -22z m265 13 c0
-6 -4 -13 -10 -16 -5 -3 -10 1 -10 9 0 9 5 16 10 16 6 0 10 -4 10 -9z m-1311
-28 c-5 -14 -7 -34 -4 -42 5 -14 4 -13 -11 1 -16 16 -16 18 0 42 21 34 28 33
15 -1z m141 -3 c-6 -12 -9 -28 -6 -36 3 -8 1 -14 -3 -14 -18 0 -21 34 -5 57
19 30 30 24 14 -7z m350 26 c0 -2 7 -20 15 -40 20 -46 3 -47 -24 0 -25 42 -25
44 -6 44 8 0 15 -2 15 -4z m111 -23 c-4 -16 -6 -34 -4 -40 7 -18 -16 -16 -23
2 -4 8 1 26 10 40 21 32 26 32 17 -2z m228 1 c-5 -15 -7 -35 -4 -45 7 -22 -7
-25 -24 -5 -18 22 1 63 36 75 1 1 -2 -11 -8 -25z m320 -5 c22 -29 23 -31 6
-50 -20 -21 -35 -18 -17 4 9 11 6 19 -13 37 -13 13 -22 27 -19 31 9 14 18 10
43 -22z m90 5 c-5 -15 -6 -36 -3 -48 6 -18 5 -19 -10 -7 -20 17 -20 25 0 56
21 32 26 32 13 -1z m-1768 -11 c-12 -20 -14 -14 -5 12 4 9 9 14 11 11 3 -2 0
-13 -6 -23z m1488 6 c-6 -12 -9 -30 -6 -40 3 -11 0 -19 -8 -19 -23 0 -25 28
-4 54 25 31 34 34 18 5z m-1482 -35 c-3 -3 -12 -4 -19 -1 -8 3 -5 6 6 6 11 1
17 -2 13 -5z m-5015 -150 c16 -38 34 -79 40 -90 6 -14 7 -28 1 -38 -7 -13 -15
-2 -37 51 -16 38 -29 78 -30 91 0 12 -4 22 -7 22 -4 0 -9 9 -12 21 -12 47 19
8 45 -57z m299 29 c2 -176 2 -173 -17 -173 -13 0 -15 15 -12 110 2 79 6 110
16 110 8 0 12 -16 13 -47z m301 -68 l-3 -115 -27 0 c-20 0 -23 3 -14 12 8 8
12 48 12 115 0 91 2 103 18 103 15 0 17 -11 14 -115z m317 53 c16 -35 35 -76
41 -93 l11 -30 47 90 c45 85 50 90 82 93 31 3 33 2 17 -10 -16 -12 -18 -26
-15 -116 3 -96 2 -102 -17 -102 -18 0 -20 6 -17 63 2 35 2 79 0 98 -4 32 -6
29 -53 -65 -56 -112 -55 -112 -102 6 -16 37 -32 68 -36 68 -5 0 -7 -38 -5 -85
3 -72 1 -85 -13 -85 -13 0 -14 8 -8 53 12 80 10 152 -3 165 -9 9 -6 12 14 12
23 0 31 -9 57 -62z m386 -58 c0 -100 -2 -120 -15 -120 -31 0 -35 17 -35 128
l0 112 25 0 25 0 0 -120z m191 95 c-22 -20 -26 -32 -26 -79 0 -69 16 -105 55
-122 27 -12 28 -13 7 -14 -57 -1 -112 58 -112 120 0 32 36 95 62 107 38 19 43
15 14 -12z m128 15 c65 -24 76 -150 17 -202 -19 -17 -42 -28 -59 -27 -24 0
-25 1 -7 8 44 19 60 50 60 118 0 60 -2 67 -30 89 -31 25 -24 31 19 14z m311
-15 c32 -31 31 -50 0 -79 -14 -13 -25 -26 -25 -30 0 -9 53 -80 63 -84 14 -7 7
-22 -12 -22 -11 0 -36 23 -60 55 -23 30 -46 55 -51 55 -14 0 -24 -68 -11 -84
15 -17 4 -26 -33 -26 -23 0 -27 3 -18 12 8 8 12 47 12 108 0 61 -4 100 -12
108 -9 9 3 12 55 12 59 0 71 -3 92 -25z m-1540 -75 c0 -16 -3 -30 -7 -30 -10
0 -10 44 -1 53 3 4 7 7 7 7 1 0 1 -13 1 -30z m-3582 -47 c-7 -2 -21 -2 -30 0
-10 3 -4 5 12 5 17 0 24 -2 18 -5z m289 -9 c277 -42 515 -163 718 -364 252
-248 374 -568 368 -965 l-1 -120 -7 155 c-17 374 -120 630 -357 886 -60 65
-202 180 -282 229 -175 106 -393 170 -641 188 -30 2 -20 4 27 5 40 1 119 -5
175 -14z m-387 -1 c-152 -21 -350 -86 -475 -155 -127 -71 -241 -166 -341 -286
-90 -108 -108 -127 -84 -87 69 115 195 244 325 332 156 106 425 201 565 200
31 0 33 -1 10 -4z m13520 -23 c3 -5 -9 -13 -27 -18 -18 -5 -32 -14 -30 -21 1
-6 -7 -11 -18 -11 -25 0 -44 32 -28 48 14 14 94 16 103 2z m-9801 -34 c-3 -9
-13 -16 -22 -16 -13 0 -12 3 3 20 20 23 29 21 19 -4z m300 0 c-3 -9 -10 -16
-15 -16 -6 0 -5 9 1 21 13 24 24 20 14 -5z m4416 -76 l0 -60 36 0 c58 0 86 60
47 102 -13 15 -13 18 -2 18 32 0 59 -31 59 -65 0 -28 -6 -37 -30 -50 -19 -10
-28 -20 -23 -28 18 -30 77 -103 92 -114 9 -7 11 -12 4 -13 -31 -1 -65 24 -103
74 -25 33 -50 56 -61 56 -16 0 -19 -8 -19 -54 0 -34 5 -56 13 -59 6 -3 -6 -6
-27 -6 -31 -1 -37 2 -28 11 8 8 12 52 12 130 0 98 3 118 15 118 12 0 15 -13
15 -60z m1030 50 c16 0 38 -45 27 -56 -2 -2 -21 12 -43 33 -21 20 -31 34 -21
30 10 -4 27 -7 37 -7z m394 -21 c-8 -14 -34 -11 -34 4 0 8 3 17 7 20 9 9 34
-13 27 -24z m-550 -16 c-23 -34 -25 -45 -21 -103 4 -56 9 -68 36 -92 36 -32
90 -38 115 -12 9 8 16 31 16 50 0 27 -5 37 -22 44 -19 7 -14 9 26 9 40 1 47
-2 42 -15 -3 -9 -6 -33 -6 -53 0 -35 -3 -39 -39 -49 -91 -28 -169 -5 -201 59
-11 21 -20 50 -20 63 0 42 29 101 58 119 41 25 44 21 16 -20z m4841 -43 c0 -9
-11 -16 -27 -18 -27 -3 -38 14 -21 32 12 12 48 2 48 -14z m-5429 -22 c-9 -12
-16 -43 -16 -68 0 -25 7 -56 16 -68 19 -27 1 -31 -34 -6 -33 23 -32 105 3 139
31 31 52 33 31 3z m233 -138 c10 -5 21 -6 25 -3 3 3 6 1 6 -5 0 -12 -19 -16
-50 -12 -28 3 -41 34 -39 91 1 31 -1 61 -5 67 -4 6 3 12 16 14 22 3 23 -1 26
-69 2 -58 6 -75 21 -83z m-134 124 c31 -34 33 -80 3 -111 -12 -13 -26 -23 -32
-23 -6 0 -5 5 2 12 17 17 15 100 -4 126 -22 31 1 28 31 -4z m235 -48 c0 -50 4
-76 13 -79 17 -6 7 -14 -23 -19 -25 -3 -25 -2 -26 69 0 43 -6 78 -13 87 -12
14 -9 16 18 16 l31 0 0 -74z m560 5 c0 -78 13 -97 56 -87 26 7 26 8 22 82 -3
74 -3 75 21 72 23 -3 24 -6 24 -88 1 -74 -2 -85 -17 -88 -10 -2 -22 2 -27 9
-6 11 -11 11 -21 1 -17 -17 -63 -15 -82 4 -11 10 -16 34 -16 74 0 32 -3 65 -6
74 -5 12 0 16 20 16 25 0 26 -1 26 -69z m241 -8 c-1 -42 2 -74 8 -78 22 -13
10 -25 -24 -25 -34 0 -46 12 -24 26 8 4 10 32 7 81 -5 70 -4 74 15 71 19 -3
20 -9 18 -75z m-14146 57 c93 -23 187 -42 294 -60 63 -11 116 -22 119 -25 9
-9 2 -86 -9 -107 -6 -11 -24 -24 -41 -30 -49 -17 -18 -29 113 -42 93 -9 123
-15 121 -25 -1 -7 2 -19 8 -26 14 -17 -27 -60 -64 -67 -53 -10 -229 9 -289 32
-60 23 -121 66 -112 80 3 5 19 11 35 15 17 4 30 11 30 16 0 5 8 9 18 10 9 0 1
6 -20 14 -20 7 -47 20 -60 28 -12 8 -62 32 -111 52 -111 47 -159 99 -125 133
14 14 39 15 93 2z m10132 -12 c-3 -8 -6 -5 -6 6 -1 11 2 17 5 13 3 -3 4 -12 1
-19z m7148 -28 c-3 -5 -11 -10 -16 -10 -6 0 -7 5 -4 10 3 6 11 10 16 10 6 0 7
-4 4 -10z m-12887 -30 c-9 -13 2 -49 47 -169 32 -83 61 -148 65 -144 4 4 33
72 64 151 46 114 55 146 45 158 -10 12 -5 14 27 13 22 0 33 -3 26 -6 -18 -7
-32 -39 -107 -238 -37 -99 -71 -184 -75 -188 -4 -5 -20 27 -35 70 -45 125
-126 326 -139 348 -13 19 -11 20 40 21 47 1 52 0 42 -16z m12348 -31 c3 -6 1
-15 -6 -19 -16 -10 -52 2 -58 18 -5 15 54 16 64 1z m1572 -26 c-4 -22 -64 -41
-80 -25 -18 18 10 42 49 42 27 0 34 -4 31 -17z m-9741 -44 c-3 -10 -1 -22 4
-25 6 -3 5 -11 -2 -20 -6 -8 -9 -25 -7 -39 3 -15 1 -25 -6 -25 -7 0 -10 27 -8
82 3 62 6 78 14 64 5 -9 8 -26 5 -37z m-445 -57 c3 -50 2 -52 -22 -51 -14 0
-19 3 -12 6 8 3 12 27 12 67 0 35 3 66 8 70 7 8 9 -5 14 -92z m67 46 c-7 -14
-7 -23 1 -33 18 -21 8 -59 -15 -62 -11 -2 -14 0 -7 3 15 7 16 46 0 62 -8 8 -8
15 1 25 6 8 8 23 4 33 -6 17 -5 17 10 5 13 -10 14 -18 6 -33z m582 -19 c-2
-29 2 -56 8 -62 20 -20 12 -31 -9 -12 -23 21 -28 93 -8 113 7 7 12 12 13 12 0
0 -2 -23 -4 -51z m89 -14 c0 -17 -6 -39 -12 -48 -11 -15 -13 -7 -13 48 0 56 2
63 12 49 7 -10 13 -32 13 -49z m82 0 c2 -53 0 -65 -12 -65 -12 0 -14 12 -12
65 2 36 7 65 12 65 5 0 10 -29 12 -65z m7578 48 c0 -4 -10 -18 -22 -31 -16
-17 -19 -26 -10 -29 18 -7 15 -21 -9 -33 -48 -26 -63 44 -17 83 20 17 58 24
58 10z m-8146 -57 c-6 -38 -4 -45 12 -49 17 -4 16 -5 -2 -6 -19 -1 -22 5 -26
44 -4 51 0 68 13 60 4 -3 6 -25 3 -49z m-62 -16 c2 -28 0 -40 -10 -40 -9 0
-12 12 -10 40 1 22 5 40 9 40 4 0 9 -18 11 -40z m323 -3 c1 -50 -12 -47 -17 3
-2 25 0 39 7 37 5 -2 10 -20 10 -40z m-188 -14 c-3 -10 -5 -2 -5 17 0 19 2 27
5 18 2 -10 2 -26 0 -35z m961 30 c-60 -2 -156 -2 -215 0 -60 1 -11 3 107 3
118 0 167 -2 108 -3z m-1138 -46 c10 -4 8 -6 -7 -6 -12 -1 -24 3 -27 8 -7 11
6 24 13 13 3 -5 13 -12 21 -15z m8938 -65 c2 -24 8 -32 23 -32 27 0 25 -35 -3
-54 -12 -9 -33 -16 -46 -16 -21 0 -23 4 -18 25 4 14 2 25 -4 25 -15 0 -12 22
6 59 19 39 38 36 42 -7z m-14574 2 c3 -9 6 -19 6 -23 0 -15 -193 -60 -385 -89
-374 -58 -311 -27 160 79 50 11 113 26 140 34 68 17 72 17 79 -1z m13654 -11
c5 -17 -26 -29 -40 -15 -6 6 -7 15 -3 22 9 14 37 9 43 -7z m-3905 -94 c-2
-108 -11 -111 -15 -5 -2 53 1 86 7 86 6 0 9 -32 8 -81z m1067 -9 c0 -49 -4
-90 -8 -90 -4 0 -8 8 -8 18 -7 165 -7 162 6 162 6 0 10 -37 10 -90z m-981 34
c-14 -14 -16 -12 -17 17 -1 30 0 31 16 16 15 -15 15 -18 1 -33z m381 -39 c0
-50 -4 -85 -10 -85 -6 0 -10 35 -10 85 0 50 4 85 10 85 6 0 10 -35 10 -85z
m246 66 c-25 -27 -31 -84 -13 -119 13 -27 13 -30 0 -25 -24 9 -42 62 -32 96 9
32 36 67 52 67 6 0 2 -8 -7 -19z m124 -21 c17 -32 12 -85 -11 -105 -20 -19
-20 -19 -9 10 12 32 5 78 -17 113 -14 22 -13 23 6 13 11 -7 25 -20 31 -31z
m890 31 c24 -6 25 -9 25 -94 0 -48 -2 -87 -5 -87 -25 1 -32 22 -29 90 3 61 1
74 -13 84 -14 8 -23 8 -38 -2 -11 -7 -20 -8 -20 -4 0 22 28 27 80 13z m80 -7
c0 -8 -4 -12 -10 -9 -5 3 -10 10 -10 16 0 5 5 9 10 9 6 0 10 -7 10 -16z
m-12674 -21 c25 -16 25 -17 8 -30 -38 -28 -82 -2 -54 32 15 19 15 19 46 -2z
m16778 11 c23 -9 20 -51 -4 -64 -14 -8 -26 -8 -40 0 -24 13 -26 33 -4 54 17
18 24 19 48 10z m-18012 -21 c44 -39 -6 -83 -61 -52 -31 18 -36 33 -16 53 21
21 53 20 77 -1z m16078 -9 c0 -14 -4 -23 -10 -19 -5 3 -10 15 -10 26 0 10 5
19 10 19 6 0 10 -12 10 -26z m419 -3 c16 -10 8 -41 -11 -41 -7 0 -19 4 -27 9
-12 8 -12 12 -2 25 15 18 21 19 40 7z m-4226 -90 c-1 -1 -6 0 -12 4 -13 7 -14
36 -4 62 6 13 9 8 13 -22 3 -22 5 -42 3 -44z m87 40 c0 -16 -8 -35 -17 -42
-16 -13 -17 -12 -4 4 8 11 11 28 7 48 -3 18 -2 28 4 24 6 -3 10 -19 10 -34z
m1042 34 c17 -7 12 -105 -6 -105 -8 0 -12 18 -12 55 1 30 2 55 3 55 1 0 7 -2
15 -5z m88 -57 c0 -67 -21 -59 -24 9 -1 37 2 49 11 46 8 -3 13 -24 13 -55z
m159 48 c-9 -6 -18 -20 -20 -30 -2 -11 -10 -21 -18 -24 -9 -3 -11 2 -6 17 4
12 2 28 -4 35 -8 9 -2 12 27 13 30 1 34 -1 21 -11z m491 -1 c7 -9 9 -26 5 -45
-4 -19 -3 -30 4 -30 6 0 11 -5 11 -11 0 -6 -8 -9 -17 -7 -14 2 -19 16 -23 56
-6 54 -1 62 20 37z m-1935 -74 c-8 -7 -29 16 -48 51 -18 32 -18 32 17 -7 19
-22 33 -41 31 -44z m221 47 c1 -18 9 -37 20 -45 21 -15 11 -17 -17 -3 -13 8
-19 21 -19 45 0 44 15 46 16 3z m579 13 c-3 -10 -1 -31 5 -46 8 -20 7 -26 -2
-23 -21 7 -33 55 -18 72 17 21 23 20 15 -3z m90 -21 c0 -18 -4 -35 -10 -37 -6
-2 -10 15 -10 37 0 22 4 39 10 37 6 -2 10 -19 10 -37z m150 -4 c0 -35 -2 -42
-12 -34 -14 11 -18 60 -6 71 14 14 18 5 18 -37z m93 10 c3 -27 -12 -56 -29
-56 -5 0 -4 11 1 24 5 13 6 34 3 46 -4 17 -2 21 8 18 8 -2 15 -17 17 -32z
m228 -6 c-1 -38 0 -40 30 -40 37 0 60 -22 49 -47 -8 -17 -8 -17 -12 -1 -3 12
-17 18 -46 20 l-42 3 -1 45 c-1 47 2 60 15 60 4 0 7 -18 7 -40z m453 26 c7 -8
8 -17 3 -20 -6 -3 -12 3 -15 14 -6 24 -4 25 12 6z m71 10 c0 -3 -4 -8 -10 -11
-5 -3 -10 -1 -10 4 0 6 5 11 10 11 6 0 10 -2 10 -4z m4205 -43 c23 -34 13 -53
-29 -53 -46 0 -63 42 -31 74 19 19 39 12 60 -21z m-4349 11 c-4 -9 1 -28 10
-42 12 -18 13 -23 2 -20 -30 10 -44 78 -16 78 6 0 7 -7 4 -16z m-1309 -50 c-7
-7 -46 35 -47 51 0 5 12 -3 27 -17 15 -15 24 -30 20 -34z m4348 46 c30 -12 25
-30 -10 -30 -22 0 -40 22 -28 34 8 8 7 8 38 -4z m-8776 -74 c-11 -32 -23 -55
-26 -52 -3 2 5 32 18 65 13 34 25 57 27 52 1 -4 -7 -34 -19 -65z m166 42 c-12
-60 -28 -108 -36 -108 -6 0 -4 14 16 90 12 44 14 50 20 50 4 0 4 -15 0 -32z
m275 29 c0 -10 -33 -98 -35 -95 -7 7 17 98 26 98 5 0 9 -1 9 -3z m-200 -27 c0
-11 -2 -20 -4 -20 -2 0 -6 9 -9 20 -3 11 -1 20 4 20 5 0 9 -9 9 -20z m5630 -5
c0 -8 7 -15 16 -15 8 0 12 -4 9 -10 -3 -5 -10 -10 -15 -10 -14 0 -41 31 -35
41 9 14 25 11 25 -6z m-4253 -27 c-3 -7 -5 -2 -5 12 0 14 2 19 5 13 2 -7 2
-19 0 -25z m-2147 -33 c-17 -31 -19 -29 -13 13 4 24 9 30 16 23 7 -7 7 -18 -3
-36z m134 26 c3 -5 -1 -14 -8 -20 -12 -10 -13 -8 -9 8 6 23 9 25 17 12z m65 2
c0 -5 -4 -17 -9 -28 -8 -18 -9 -17 -9 8 -1 15 4 27 9 27 6 0 10 -3 9 -7z m66
-15 c-4 -13 -7 -31 -8 -40 -1 -10 -5 -18 -10 -18 -5 0 -7 10 -3 23 3 12 6 30
6 40 0 9 5 17 11 17 7 0 9 -8 4 -22z m478 -24 c11 -21 13 -34 6 -32 -13 4 -42
68 -30 68 4 0 15 -16 24 -36z m447 28 c0 -4 -7 -18 -16 -30 -8 -12 -12 -27 -8
-33 4 -7 2 -10 -5 -8 -15 5 -15 5 1 47 11 29 28 44 28 24z m-1138 -31 c-9 -16
-18 -28 -21 -26 -4 5 27 55 34 55 2 0 -4 -13 -13 -29z m400 -6 c-5 -18 -11
-25 -16 -17 -4 6 -2 21 4 33 15 28 21 20 12 -16z m552 1 c-3 -14 -10 -26 -15
-26 -12 0 -11 4 3 35 14 31 21 26 12 -9z m272 -14 c-8 -7 -25 8 -37 31 -11 21
-10 21 15 -2 14 -14 24 -26 22 -29z m54 22 c-6 -14 -8 -30 -4 -35 3 -5 0 -9
-5 -9 -6 0 -11 4 -11 9 0 14 19 61 25 61 2 0 0 -12 -5 -26z m4554 4 c16 -19
17 -20 1 -15 -9 4 -21 7 -26 7 -5 0 -9 7 -9 15 0 21 12 19 34 -7z m-5552 -15
c-3 -16 -7 -22 -10 -15 -4 13 4 42 11 42 2 0 2 -12 -1 -27z m490 2 c-4 -26
-22 -35 -22 -12 0 10 18 37 26 37 1 0 -1 -11 -4 -25z m280 -11 c-3 -17 -8 -22
-15 -15 -7 7 -6 15 3 26 17 20 18 19 12 -11z m8683 12 c12 -8 16 -19 12 -31
-6 -14 -14 -16 -45 -10 -49 9 -54 13 -42 36 12 22 48 25 75 5z m-8858 -28 c-3
-7 -5 -2 -5 12 0 14 2 19 5 13 2 -7 2 -19 0 -25z m-742 12 c3 -5 1 -10 -4 -10
-6 0 -11 5 -11 10 0 6 2 10 4 10 3 0 8 -4 11 -10z m1932 -92 c-3 -8 -6 -5 -6
6 -1 11 2 17 5 13 3 -3 4 -12 1 -19z m-6147 -129 c0 -64 -3 -89 -12 -89 -10 0
-12 24 -10 95 4 121 22 116 22 -6z m249 76 c7 -36 -11 -165 -22 -165 -9 0 -11
28 -9 96 2 67 7 94 15 91 7 -2 14 -12 16 -22z m268 -62 c33 -71 37 -75 49 -58
19 26 18 5 -2 -23 -19 -27 -31 -21 -51 27 -40 94 -36 91 -43 41 l-7 -45 -1 56
c-1 30 -7 60 -14 67 -9 9 -7 12 11 12 18 0 29 -14 58 -77z m148 -18 l0 -95
-30 1 c-16 0 -24 3 -17 6 8 3 12 28 12 76 0 65 -1 69 -15 51 -14 -18 -14 -17
-5 10 15 41 19 46 38 46 15 0 17 -12 17 -95z m157 0 l3 -95 -26 0 c-26 0 -26
0 -17 53 6 28 8 71 5 95 -4 36 -2 42 14 42 15 0 18 -11 21 -95z m152 74 c-27
-29 -26 -119 0 -148 11 -12 17 -24 14 -26 -10 -10 -66 45 -72 71 -9 34 10 90
37 109 31 22 43 18 21 -6z m131 -4 c47 -46 25 -152 -35 -168 -25 -7 -26 4 -1
20 39 25 35 128 -7 159 -16 13 -16 13 1 14 10 0 29 -11 42 -25z m157 -20 c-4
-42 -2 -45 20 -45 45 0 62 38 31 72 -18 20 -4 25 28 8 25 -14 25 -57 -2 -79
l-20 -16 30 -43 c35 -47 36 -52 18 -52 -8 0 -28 20 -46 45 -39 55 -61 59 -61
11 0 -19 6 -37 13 -39 6 -3 -6 -6 -28 -6 -25 0 -35 2 -27 8 10 6 13 31 10 95
-3 81 -2 86 17 86 18 0 20 -5 17 -45z m-1498 -48 c27 -56 32 -77 18 -77 -4 0
-17 29 -29 65 -12 36 -20 65 -18 65 1 0 14 -24 29 -53z m316 11 c0 -16 -3 -19
-11 -11 -6 6 -8 16 -5 22 11 17 16 13 16 -11z m9184 -4 c20 -19 20 -35 2 -59
-13 -18 -14 -18 -9 8 4 18 -1 34 -12 47 -21 24 -4 27 19 4z m169 6 c-11 -10
-93 -20 -93 -11 0 15 12 19 56 18 25 0 41 -3 37 -7z m85 -27 c-14 -29 -17 -49
-13 -83 4 -25 12 -51 17 -57 7 -9 7 -13 0 -13 -42 0 -57 118 -21 164 30 38 40
32 17 -11z m91 -14 c19 -56 7 -121 -26 -133 -10 -4 -11 -1 -3 14 16 30 12 122
-6 149 -16 22 -16 23 4 12 11 -6 25 -25 31 -42z m-9016 26 c-3 -9 -8 -14 -10
-11 -3 3 -2 9 2 15 9 16 15 13 8 -4z m8756 -58 c1 -5 -3 -5 -9 -2 -5 3 -10 16
-9 28 0 21 1 21 9 2 5 -11 9 -24 9 -28z m-10591 -28 c-7 -5 -21 -9 -31 -9 -10
0 -82 -11 -160 -25 -261 -46 -810 -136 -952 -156 -77 -11 -237 -35 -355 -54
-118 -20 -260 -42 -315 -50 -109 -17 -267 -43 -302 -52 -13 -3 -23 -1 -23 4 0
10 123 43 161 43 27 0 638 99 799 129 90 17 284 49 400 66 19 3 71 12 115 20
44 8 145 26 225 40 143 25 234 42 358 66 45 8 62 16 62 28 1 10 7 5 16 -13 13
-24 14 -30 2 -37z m5272 6 c0 -53 1 -55 27 -55 50 0 83 56 51 88 -6 6 -9 14
-6 18 11 11 48 -36 48 -61 0 -17 -8 -29 -25 -37 -14 -6 -25 -15 -25 -20 0 -11
49 -79 70 -95 13 -11 12 -12 -7 -13 -16 0 -35 17 -63 55 -54 73 -73 73 -68 0
2 -44 0 -55 -12 -55 -12 0 -15 20 -15 115 -1 87 2 115 12 115 9 0 13 -17 13
-55z m751 21 c-28 -30 -37 -92 -21 -140 11 -36 29 -50 79 -67 20 -7 15 -8 -17
-4 -54 7 -77 21 -98 61 -24 44 -14 107 22 145 15 16 34 29 43 29 11 0 9 -6 -8
-24z m135 9 c11 -27 -1 -33 -19 -9 -16 21 -16 24 -2 24 9 0 18 -7 21 -15z
m312 -2 c-4 -22 -22 -20 -26 1 -2 10 3 16 13 16 10 0 15 -7 13 -17z m3241 -12
c19 -12 21 -17 9 -19 -9 -2 -33 9 -54 23 -38 26 -38 26 -9 19 17 -4 41 -14 54
-23z m1215 -5 c-3 -15 1 -29 11 -40 15 -15 15 -16 0 -16 -9 0 -13 -4 -10 -10
3 -5 21 -10 39 -10 17 0 37 -5 44 -12 15 -15 16 -48 2 -48 -5 0 -10 6 -10 14
0 17 -22 26 -66 26 -35 0 -44 16 -23 37 8 8 8 13 0 17 -12 8 -15 49 -4 59 14
15 23 6 17 -17z m80 -6 c-21 -42 -29 -43 -30 -4 0 29 3 34 22 34 22 0 22 -1 8
-30z m-340 4 c17 -16 20 -33 10 -58 -10 -25 -22 -18 -16 9 3 16 -2 33 -13 45
-21 24 -4 27 19 4z m-8954 -9 c0 -8 -7 -15 -16 -15 -14 0 -14 3 -4 15 7 8 14
15 16 15 2 0 4 -7 4 -15z m5580 -121 c-88 -235 -207 -421 -375 -589 -134 -134
-255 -222 -398 -290 -145 -69 -317 -121 -280 -85 4 5 58 26 118 48 306 109
514 267 723 549 91 124 208 354 237 468 4 17 9 25 12 19 2 -6 -15 -60 -37
-120z m8245 101 c0 -28 -29 -25 -33 3 -3 19 0 23 15 20 10 -2 18 -12 18 -23z
m-10022 -27 c-18 -22 -23 -66 -13 -94 14 -37 3 -44 -22 -14 -22 28 -19 72 9
102 18 20 41 25 26 6z m177 -41 c0 -53 12 -80 40 -90 8 -3 1 -6 -17 -6 -17 -1
-34 3 -38 9 -3 5 -8 39 -12 75 -5 56 -4 65 11 65 13 0 16 -10 16 -53z m108 -2
c0 -30 4 -64 7 -75 5 -15 2 -20 -12 -20 -26 0 -48 16 -34 24 6 4 11 34 11 67
0 42 4 59 13 59 9 0 14 -17 15 -55z m472 -4 c0 -50 4 -62 22 -75 18 -13 19
-16 6 -21 -9 -4 -26 -2 -37 5 -17 8 -21 20 -21 58 0 26 -3 57 -6 70 -5 18 -2
22 15 22 19 0 21 -6 21 -59z m100 0 c0 -33 3 -67 6 -76 5 -13 2 -16 -16 -13
-23 3 -24 7 -22 73 0 39 1 71 2 73 0 1 7 2 15 2 12 0 15 -13 15 -59z m100 -4
c0 -36 5 -68 12 -75 9 -9 4 -12 -26 -12 -32 0 -37 2 -26 14 6 8 11 39 10 68
-2 69 -2 68 15 68 12 0 15 -14 15 -63z m-866 31 c22 -32 20 -53 -10 -85 -20
-21 -24 -23 -18 -8 14 39 16 73 5 94 -16 28 3 27 23 -1z m4971 2 c3 -5 1 -10
-4 -10 -6 0 -11 5 -11 10 0 6 2 10 4 10 3 0 8 -4 11 -10z m-60 -10 c-3 -5 -31
-10 -61 -10 -30 0 -54 5 -54 10 0 6 27 10 61 10 37 0 58 -4 54 -10z m-4346
-13 c6 -14 -11 -82 -22 -89 -7 -4 -19 -8 -26 -8 -12 0 -12 3 -3 12 18 18 15
75 -5 88 -15 8 -11 10 17 8 19 -2 37 -6 39 -11z m4744 -31 c3 -8 18 -16 34
-19 l28 -4 -30 -2 c-29 -1 -55 13 -55 31 0 14 18 9 23 -6z m-885 -11 c12 -3
22 -11 22 -17 0 -14 -51 -1 -70 19 -16 16 -16 16 48 -2z m101 -29 c15 -8 51
-18 79 -22 35 -4 52 -11 52 -20 0 -15 -13 -14 -90 6 -92 24 -112 32 -99 41 19
12 26 11 58 -5z m5889 -18 c-7 -19 -38 -22 -38 -4 0 10 9 16 21 16 12 0 19 -5
17 -12z m-14508 -70 c0 -7 -4 -20 -10 -28 -5 -9 -5 -19 1 -27 6 -6 9 -20 6
-30 -4 -14 -5 -14 -6 4 0 12 -5 24 -9 27 -11 7 -3 66 9 66 5 0 9 -6 9 -12z
m302 -48 c-1 -29 -3 -55 -6 -58 -3 -3 -6 23 -6 58 0 35 3 61 6 57 3 -3 6 -29
6 -57z m310 -5 c2 -37 -1 -55 -9 -55 -7 0 -9 13 -6 40 4 25 1 46 -7 55 -10 12
-10 15 3 15 11 0 16 -14 19 -55z m-675 -2 c-3 -10 -5 -2 -5 17 0 19 2 27 5 18
2 -10 2 -26 0 -35z m529 -3 c0 -29 -3 -45 -8 -38 -13 22 -9 88 6 88 1 0 1 -23
2 -50z m74 11 c0 -24 -6 -44 -17 -52 -12 -10 -14 -10 -9 -1 4 6 8 30 8 52 0
22 4 40 9 40 5 0 9 -17 9 -39z m-4250 21 c0 -8 -43 -32 -56 -32 -16 0 6 25 27
31 13 4 25 7 27 8 1 1 2 -3 2 -7z m3854 -47 c1 -19 -2 -35 -5 -35 -8 0 -17 69
-10 75 9 9 14 -5 15 -40z m-56 -5 c0 -16 -3 -30 -7 -30 -4 0 -8 14 -9 30 0 17
3 30 7 30 4 0 8 -13 9 -30z m272 0 c0 -16 -4 -30 -8 -30 -5 0 -7 14 -4 30 2
17 6 30 8 30 2 0 4 -13 4 -30z m-158 -5 c3 -13 1 -22 -3 -19 -9 5 -13 44 -5
44 2 0 6 -11 8 -25z m14242 -5 c7 -7 5 -15 -5 -26 -13 -12 -24 -13 -58 -5 -49
11 -67 24 -56 41 9 15 102 7 119 -10z m-14504 -11 c0 -5 -4 -9 -10 -9 -5 0
-10 7 -10 16 0 8 5 12 10 9 6 -3 10 -10 10 -16z m107 6 c0 -8 -4 -12 -9 -9 -4
3 -8 9 -8 15 0 5 4 9 8 9 5 0 9 -7 9 -15z m4332 -132 c-2 -79 -6 -70 -11 25
-2 28 0 52 5 52 4 0 6 -35 6 -77z m587 55 c-3 -13 -6 -47 -6 -75 0 -29 -4 -53
-9 -53 -5 0 -8 34 -8 75 1 57 5 75 15 75 10 0 12 -7 8 -22z m64 12 c0 -5 -4
-10 -9 -10 -6 0 -13 5 -16 10 -3 6 1 10 9 10 9 0 16 -4 16 -10z m-852 -25 c16
-34 15 -70 -1 -83 -10 -8 -12 -2 -9 28 2 21 -1 47 -7 59 -7 12 -8 21 -3 21 5
0 14 -11 20 -25z m-125 -24 c-3 -21 0 -48 6 -60 7 -11 8 -21 2 -21 -18 0 -31
58 -20 90 15 40 18 38 12 -9z m-596 -23 c-3 -8 -6 -5 -6 6 -1 11 2 17 5 13 3
-3 4 -12 1 -19z m1128 -26 c0 -23 -3 -42 -7 -42 -5 0 -8 13 -8 29 0 16 -3 37
-7 47 -4 12 -2 15 8 12 8 -3 14 -20 14 -46z m65 29 c14 -28 13 -71 -3 -71 -9
0 -12 9 -9 28 2 18 -2 35 -13 45 -14 15 -14 17 -1 17 8 0 20 -9 26 -19z m130
-1 c-6 -11 -12 -20 -14 -20 -2 0 -6 9 -9 20 -4 15 0 20 14 20 17 0 18 -3 9
-20z m441 13 c7 -53 4 -83 -9 -83 -8 0 -12 6 -9 14 3 8 3 17 0 20 -12 12 -9
56 4 56 7 0 13 -3 14 -7z m-1684 -69 c-5 -5 -47 49 -47 61 0 4 12 -8 26 -25
15 -17 24 -33 21 -36z m65 32 c2 -19 0 -32 -4 -30 -8 5 -12 64 -4 64 2 0 6
-15 8 -34z m641 -14 c4 -36 3 -41 -9 -31 -14 12 -19 60 -7 72 9 10 10 8 16
-41z m277 15 c0 -12 -4 -28 -8 -34 -5 -7 -8 4 -7 26 0 22 3 37 8 34 4 -2 7
-14 7 -26z m207 8 c9 -20 8 -25 -2 -25 -7 0 -16 7 -19 16 -15 40 3 47 21 9z
m336 -54 c-1 -1 -6 0 -12 4 -13 7 -14 36 -4 62 6 13 9 8 13 -22 3 -22 5 -42 3
-44z m57 58 c0 -5 -4 -9 -10 -9 -5 0 -10 7 -10 16 0 8 5 12 10 9 6 -3 10 -10
10 -16z m-1443 -21 c-3 -7 -5 -2 -5 12 0 14 2 19 5 13 2 -7 2 -19 0 -25z m198
12 c7 0 20 -11 29 -25 9 -14 13 -25 9 -25 -5 0 -14 9 -21 20 -7 11 -19 20 -27
20 -8 0 -15 8 -14 18 0 10 3 12 6 5 2 -7 11 -13 18 -13z m445 3 c0 -10 -4 -24
-9 -31 -5 -9 -8 -3 -7 17 1 32 16 45 16 14z m125 -51 c-9 -9 -26 41 -19 56 5
13 9 8 15 -18 4 -19 6 -36 4 -38z m-702 -2 c-7 -8 -23 24 -22 45 0 15 3 13 13
-10 7 -16 11 -32 9 -35z m1431 14 c4 -9 4 -19 2 -21 -8 -8 -26 8 -26 23 0 19
16 18 24 -2z m-4784 -4 c0 -5 -5 -10 -11 -10 -5 0 -7 5 -4 10 3 6 8 10 11 10
2 0 4 -4 4 -10z m204 -17 c-4 -16 -13 -44 -20 -63 -9 -25 -13 -29 -13 -14 -1
12 6 37 14 57 8 19 11 37 8 41 -4 3 -1 6 6 6 7 0 9 -9 5 -27z m4180 11 c20 -8
21 -28 2 -43 -12 -10 -13 -8 -9 8 4 18 1 21 -24 21 -36 0 -46 -9 -32 -27 9
-10 8 -13 -4 -13 -12 0 -16 8 -14 30 2 27 6 30 34 30 17 0 38 -3 47 -6z
m-4398 -40 c-4 -9 -9 -15 -11 -12 -3 3 -3 13 1 22 4 9 9 15 11 12 3 -3 3 -13
-1 -22z m-131 -23 c-4 -17 -10 -31 -14 -31 -5 0 -3 15 3 34 13 42 21 39 11 -3z
m-414 6 c-10 -9 -11 -8 -5 6 3 10 9 15 12 12 3 -3 0 -11 -7 -18z m96 1 c-3 -8
-6 -5 -6 6 -1 11 2 17 5 13 3 -3 4 -12 1 -19z m826 -15 c-4 -22 -11 -33 -22
-32 -10 0 -11 2 -3 6 6 2 12 15 12 27 0 20 10 40 15 34 2 -2 0 -18 -2 -35z
m-863 23 c0 -3 -4 -8 -10 -11 -5 -3 -10 -1 -10 4 0 6 5 11 10 11 6 0 10 -2 10
-4z m467 -38 c-3 -8 -6 -5 -6 6 -1 11 2 17 5 13 3 -3 4 -12 1 -19z m-170 -10
c-3 -8 -6 -5 -6 6 -1 11 2 17 5 13 3 -3 4 -12 1 -19z m480 0 c-3 -8 -6 -5 -6
6 -1 11 2 17 5 13 3 -3 4 -12 1 -19z m223 2 c0 -5 -2 -10 -4 -10 -3 0 -8 5
-11 10 -3 6 -1 10 4 10 6 0 11 -4 11 -10z m-1081 -260 c-1 -51 -5 -90 -11 -90
-9 0 -10 155 -1 173 10 19 13 0 12 -83z m101 40 c0 -10 -10 -24 -22 -33 l-23
-15 33 -47 c41 -58 19 -54 -26 5 l-33 43 23 11 c17 9 23 20 21 44 -1 27 1 31
13 21 8 -6 14 -19 14 -29z m875 30 c3 -5 -1 -10 -9 -10 -9 0 -16 5 -16 10 0 6
4 10 9 10 6 0 13 -4 16 -10z m-373 -12 c-17 -17 -15 -109 4 -136 13 -19 13
-22 0 -22 -21 0 -56 49 -56 79 0 31 34 91 52 91 9 0 9 -3 0 -12z m118 2 c0 -5
-2 -10 -4 -10 -3 0 -8 5 -11 10 -3 6 -1 10 4 10 6 0 11 -4 11 -10z m3600 -70
c0 -47 -4 -80 -10 -80 -6 0 -10 28 -10 64 0 35 -3 71 -6 80 -4 11 -1 16 10 16
13 0 16 -13 16 -80z m130 76 c0 -2 -11 -6 -25 -8 -14 -3 -25 -1 -25 3 0 5 11
9 25 9 14 0 25 -2 25 -4z m105 -75 c0 -61 -3 -77 -12 -69 -19 16 -26 73 -13
112 6 20 15 36 18 36 4 0 7 -36 7 -79z m85 60 c15 -29 12 -94 -5 -117 -13 -17
-14 -15 -9 28 4 25 2 60 -4 77 -12 34 1 43 18 12z m-243 -43 c-3 -7 -5 -2 -5
12 0 14 2 19 5 13 2 -7 2 -19 0 -25z m-3425 -48 c2 -48 0 -60 -12 -60 -12 0
-15 12 -13 57 2 69 1 63 12 63 5 0 11 -27 13 -60z m-787 0 c0 -43 -2 -48 -12
-33 -7 9 -13 23 -13 31 0 12 17 52 23 52 1 0 2 -23 2 -50z m95 0 c0 -15 -6
-32 -12 -38 -10 -8 -13 0 -13 38 0 38 3 46 13 38 6 -6 12 -23 12 -38z m60 7
c0 -24 5 -48 12 -55 6 -6 9 -14 6 -17 -3 -3 -13 1 -22 10 -18 18 -23 105 -6
105 6 0 10 -19 10 -43z m90 -12 c0 -37 -4 -55 -12 -55 -9 0 -13 18 -13 55 0
37 4 55 13 55 8 0 12 -18 12 -55z m380 6 c0 -39 4 -51 18 -55 10 -3 6 -4 -8
-3 -23 2 -26 7 -30 55 -4 38 -2 52 7 52 9 0 13 -16 13 -49z m82 -6 c2 -43 0
-55 -11 -53 -9 2 -14 20 -15 56 -1 72 21 70 26 -3z m3582 39 c9 -8 16 -24 16
-34 0 -10 -7 -26 -16 -34 -21 -22 -27 -20 -12 4 11 17 10 26 -4 50 -18 32 -9
40 16 14z m239 -4 c-3 -11 0 -27 7 -35 10 -12 10 -15 -3 -15 -8 0 -18 7 -21
16 -10 27 -7 54 8 54 9 0 12 -7 9 -20z m70 13 c-7 -2 -13 -13 -13 -24 0 -28
-17 -23 -22 6 -5 22 -2 25 21 24 14 0 20 -3 14 -6z m-4053 -59 c0 -19 -2 -34
-4 -34 -2 0 -12 -3 -21 -7 -15 -5 -16 -3 -6 16 7 12 11 29 10 39 -2 27 0 34
11 27 6 -3 10 -22 10 -41z m855 -9 c-8 -21 -18 -36 -21 -33 -2 3 3 22 12 42
10 19 19 34 21 32 2 -2 -3 -21 -12 -41z m3193 -21 c6 -2 12 -11 11 -21 0 -11
-3 -13 -6 -5 -2 6 -20 12 -38 12 -39 0 -65 8 -65 21 0 8 64 4 98 -7z m-91 -46
c-3 -8 -6 -5 -6 6 -1 11 2 17 5 13 3 -3 4 -12 1 -19z m-8177 -28 c0 -5 -7 -10
-16 -10 -8 0 -12 5 -9 10 3 6 10 10 16 10 5 0 9 -4 9 -10z m4998 -47 c-138
-249 -354 -437 -603 -525 -80 -29 -135 -41 -135 -30 0 4 35 18 78 31 98 32
266 118 340 175 69 53 217 206 253 261 14 22 41 64 59 93 43 69 48 66 8 -5z
m-1011 -120 c-2 -21 -4 -6 -4 32 0 39 2 55 4 38 2 -18 2 -50 0 -70z m459 -21
c-11 -10 -12 3 -7 58 l6 55 3 -54 c2 -29 1 -56 -2 -59z m-606 44 c0 -26 -6
-18 -14 19 -5 22 -4 26 4 15 5 -8 10 -24 10 -34z m-106 -11 c5 -22 4 -26 -4
-15 -5 8 -10 24 -10 34 0 26 6 18 14 -19z m208 -17 c-10 -22 -10 -21 -9 9 1
19 6 28 11 23 6 -6 5 -18 -2 -32z m103 12 c0 -16 -3 -30 -7 -30 -5 0 -8 14 -8
30 0 17 3 30 8 30 4 0 7 -13 7 -30z m65 10 c0 -11 -2 -20 -4 -20 -2 0 -6 9 -9
20 -3 11 -1 20 4 20 5 0 9 -9 9 -20z m47 -27 c-3 -10 -5 -2 -5 17 0 19 2 27 5
18 2 -10 2 -26 0 -35z m61 22 c-3 -3 -9 2 -12 12 -6 14 -5 15 5 6 7 -7 10 -15
7 -18z m-341 -7 c-3 -8 -6 -5 -6 6 -1 11 2 17 5 13 3 -3 4 -12 1 -19z m656 -8
c3 -11 1 -20 -4 -20 -5 0 -9 9 -9 20 0 11 2 20 4 20 2 0 6 -9 9 -20z m152 -10
c3 -5 1 -10 -4 -10 -6 0 -11 5 -11 10 0 6 2 10 4 10 3 0 8 -4 11 -10z m-380
-19 c-5 -9 -65 -1 -65 8 0 4 16 5 35 3 19 -2 33 -7 30 -11z m-379 -247 c1 -34
-2 -51 -7 -42 -13 20 -9 98 5 98 1 0 2 -25 2 -56z m87 -14 c-10 -46 -18 -40
-18 15 0 47 1 51 12 32 6 -12 9 -33 6 -47z m117 32 c0 -5 -7 -17 -16 -28 -14
-17 -15 -17 -10 -1 3 10 6 23 6 28 0 5 5 9 10 9 6 0 10 -4 10 -8z m-63 -22 c1
-11 -2 -18 -8 -15 -11 7 -12 35 -1 35 4 0 8 -9 9 -20z m28 -50 c-3 -5 -15 -10
-26 -10 -10 0 -19 5 -19 10 0 6 12 10 26 10 14 0 23 -4 19 -10z m26 -33 c-10
-9 -11 -8 -5 6 3 10 9 15 12 12 3 -3 0 -11 -7 -18z m-42 -15 c-14 -5 -39 6
-39 17 0 5 11 4 25 -2 13 -7 20 -14 14 -15z m13115 -70 c10 -17 -6 -50 -36
-72 -16 -12 -32 -19 -35 -17 -2 3 4 26 16 51 18 42 42 58 55 38z m-174 -102
c0 -5 -5 -10 -11 -10 -5 0 -7 5 -4 10 3 6 8 10 11 10 2 0 4 -4 4 -10z m300
-70 c0 -5 -6 -10 -14 -10 -8 0 -18 5 -21 10 -3 6 3 10 14 10 12 0 21 -4 21
-10z m-600 -32 c-1 -21 -90 -61 -106 -48 -20 17 -5 40 26 40 16 0 32 5 35 10
9 14 45 12 45 -2z m-4086 -269 c33 -26 33 -41 0 -76 -20 -22 -24 -23 -19 -8
16 45 17 56 5 70 -17 20 -49 19 -73 -2 -16 -14 -19 -15 -15 -3 5 15 44 40 64
40 6 0 23 -9 38 -21z m191 1 c-3 -5 -26 -10 -50 -10 -43 0 -44 0 -48 -37 -3
-35 -4 -34 -5 10 l-2 47 56 0 c34 0 53 -4 49 -10z m95 -25 c-20 -40 -17 -105
6 -142 20 -32 0 -29 -26 5 -18 22 -21 37 -18 79 3 32 12 61 23 73 28 31 35 24
15 -15z m97 9 c9 -15 17 -47 17 -75 1 -39 -4 -53 -23 -71 -22 -21 -23 -21 -16
-3 16 43 17 113 2 144 -19 38 -4 41 20 5z m190 -55 c-9 -6 -17 -19 -17 -29 0
-10 -4 -22 -10 -25 -5 -3 -10 3 -10 14 0 10 -3 27 -7 36 -5 14 -2 16 15 11 11
-4 23 -2 27 4 4 6 10 8 13 5 4 -4 -1 -11 -11 -16z m-389 -12 c16 -13 16 -62
-1 -76 -11 -8 -13 -4 -9 20 3 22 -2 37 -19 55 -21 22 -21 24 -4 18 11 -4 26
-11 33 -17z m294 -5 c-2 -19 3 -35 14 -46 17 -17 17 -18 -1 -15 -11 2 -26 16
-34 31 -13 22 -13 29 -2 42 20 24 28 19 23 -12z m-452 -84 c0 -4 -29 -8 -65
-8 -36 0 -65 4 -65 9 0 6 29 9 65 8 36 -1 65 -5 65 -9z m68 -6 c2 -7 -2 -10
-12 -6 -9 3 -16 11 -16 16 0 13 23 5 28 -10z m475 -4 c19 -10 23 -33 7 -43 -5
-3 -10 1 -10 9 0 16 -21 24 -79 28 -19 2 -36 9 -39 16 -3 10 8 11 50 6 29 -4
61 -11 71 -16z m-5443 -83 c0 -52 -4 -95 -9 -95 -9 0 -21 166 -13 183 2 4 7 7
13 7 5 0 9 -42 9 -95z m104 56 c-16 -32 -16 -95 1 -136 8 -19 7 -19 -11 -2
-27 25 -27 126 0 156 26 28 30 21 10 -18z m106 -23 c12 -44 0 -97 -27 -120
-15 -12 -15 -11 -4 10 14 26 11 123 -4 157 -8 18 -7 19 8 6 9 -7 22 -31 27
-53z m86 43 c-21 -23 -25 -115 -6 -152 l12 -24 -23 23 c-19 18 -24 33 -23 71
0 49 24 101 46 101 6 0 3 -8 -6 -19z m99 -62 c7 -43 -8 -94 -29 -102 -10 -4
-10 4 1 36 11 32 12 54 5 92 -9 42 -8 47 3 31 8 -10 17 -36 20 -57z m-4342 44
c-13 -2 -33 -2 -45 0 -13 2 -3 4 22 4 25 0 35 -2 23 -4z m97 -12 c-13 -25 -13
-81 0 -118 l10 -28 -20 24 c-11 13 -20 36 -20 51 0 35 19 90 31 90 6 0 5 -8
-1 -19z m100 -64 c0 -41 -14 -77 -31 -77 -6 0 -5 8 2 21 6 13 9 45 7 77 -4 48
-3 53 9 37 7 -11 13 -36 13 -58z m9088 34 c-14 -5 -31 15 -23 29 5 8 11 6 20
-7 9 -11 10 -19 3 -22z m-4873 -11 c-3 -10 -1 -28 5 -40 16 -29 -5 -25 -25 6
-13 20 -14 28 -4 40 17 20 31 17 24 -6z m93 13 c-11 -3 -18 -14 -18 -28 0 -12
-6 -25 -14 -28 -10 -4 -12 0 -9 14 3 10 0 26 -7 34 -11 13 -7 15 26 14 22 -1
31 -3 22 -6z m-4243 -23 c-3 -10 -1 -28 5 -40 6 -11 7 -20 2 -20 -5 0 -15 11
-22 25 -11 20 -11 27 0 40 17 20 23 19 15 -5z m71 -4 c3 -8 1 -22 -4 -32 -8
-14 -10 -11 -14 15 -5 31 8 43 18 17z m-306 -41 c0 -13 -4 -27 -10 -30 -6 -4
-10 8 -10 30 0 22 4 34 10 30 6 -3 10 -17 10 -30z m4463 -37 c21 -11 22 -31 3
-47 -12 -10 -13 -9 -9 8 4 18 -1 20 -43 23 -36 2 -50 7 -52 20 -3 14 3 15 40
11 24 -3 51 -10 61 -15z m-4194 2 c34 0 67 -23 57 -39 -6 -9 -11 -8 -19 3 -7
8 -30 16 -51 18 -23 2 -41 9 -44 17 -3 10 0 12 12 8 10 -4 30 -7 45 -7z m4109
-69 c-14 -5 -31 15 -23 29 5 8 11 6 20 -7 9 -11 10 -19 3 -22z m-4150 10 c3
-8 -1 -12 -9 -9 -7 2 -15 10 -17 17 -3 8 1 12 9 9 7 -2 15 -10 17 -17z m-3318
-520 c0 -5 -9 -7 -20 -4 -11 3 -20 7 -20 9 0 2 9 4 20 4 11 0 20 -4 20 -9z
m1594 -345 c139 -68 218 -119 323 -208 119 -101 202 -207 221 -283 38 -148 41
-179 28 -243 -8 -34 -26 -81 -42 -103 -16 -23 -33 -51 -39 -63 -13 -26 -43
-31 -69 -11 -19 14 -19 15 -1 35 14 16 26 19 48 14 27 -5 29 -4 22 12 -12 27
-10 53 8 99 10 24 16 72 17 118 0 153 -91 302 -275 450 -61 49 -142 108 -181
131 -63 39 -252 126 -272 126 -4 0 -17 7 -28 15 -35 26 125 -33 240 -89z
m-986 -666 c67 -46 119 -86 117 -89 -7 -7 -136 81 -230 158 -55 44 -10 17 113
-69z m2752 -185 c17 -20 4 -35 -30 -35 -36 0 -49 19 -25 37 24 17 40 17 55 -2z
m-2235 -117 c46 -23 85 -37 200 -67 22 -6 91 -16 153 -23 89 -9 122 -9 162 1
53 14 78 8 60 -14 -15 -18 -131 -25 -224 -14 -90 11 -155 27 -241 59 -33 12
-78 29 -100 37 -57 20 -176 79 -200 97 -22 17 108 -35 190 -76z m825 7 c0 -8
-4 -15 -10 -15 -5 0 -28 -16 -49 -36 -36 -32 -44 -35 -93 -32 l-53 3 45 20
c25 10 68 31 95 46 59 32 65 34 65 14z m1521 -25 c20 -11 26 -45 8 -55 -15
-10 -56 3 -62 20 -4 8 1 21 9 30 18 18 20 18 45 5z"/>
<path d="M14467 7679 c-44 -26 -62 -145 -32 -215 20 -48 73 -71 128 -54 31 9
42 19 58 53 35 78 14 183 -42 212 -33 17 -86 19 -112 4z"/>
<path d="M14894 7680 c-5 -5 -7 -36 -6 -69 l4 -61 38 0 c61 0 90 54 53 99 -20
24 -77 43 -89 31z"/>
<path d="M9810 6360 c0 -48 1 -50 28 -50 52 0 69 43 32 80 -11 11 -29 20 -40
20 -17 0 -20 -7 -20 -50z"/>
</g>
</svg>
