<svg width="1600" height="900" viewBox="0 0 1600 900" fill="none" xmlns="http://www.w3.org/2000/svg">
<rect width="1600" height="900" fill="#120F18"/>
<rect width="1600" height="900" fill="url(#g)" fill-opacity="0.8"/>
<ellipse cx="800" cy="700" rx="420" ry="120" fill="#2A1E14"/>
<circle cx="800" cy="430" r="220" fill="#251A14" stroke="#5B4631" stroke-width="10"/>
<path d="M670 420C700 380 745 350 800 350C855 350 900 380 930 420" stroke="#EAD7AE" stroke-width="10" stroke-linecap="round"/>
<path d="M640 470C690 535 755 565 800 565C845 565 910 535 960 470" stroke="#C08457" stroke-width="12" stroke-linecap="round"/>
<path d="M710 260C690 200 720 150 760 120" stroke="#E5E7EB" stroke-width="7" stroke-linecap="round"/>
<path d="M800 245C780 180 820 130 860 95" stroke="#E5E7EB" stroke-width="7" stroke-linecap="round"/>
<path d="M890 260C870 200 900 150 940 120" stroke="#E5E7EB" stroke-width="7" stroke-linecap="round"/>
<defs><linearGradient id="g" x1="800" y1="0" x2="800" y2="900"><stop stop-color="#3B2B1F"/><stop offset="1" stop-color="#120F18"/></linearGradient></defs>
</svg>
